<svg width="728px" height="749px" viewBox="0 0 728 749" xmlns="http://www.w3.org/2000/svg" xmlns:xlink="http://www.w3.org/1999/xlink" style="width: 728px; height: 749px;"><g transform="matrix(1, 0, 0, 1, 0, 0)" clip-path="url(#mainClip1196)"><rect x="0" y="0" width="728" height="749" fill="white" stroke="none" transform="matrix(1, 0, 0, 1, 0, 0)"></rect><g transform="matrix(1, 0, 0, 1, -324.2843782627711, 346.16547932065333)"><g transform="matrix(1, 0, 0, 1, 605.7574826007572, -247.1574744478557)"><path d="M 224.1831284305406,0 C 145.95486822002283,31.342822070762082 63.57665715431665,53.46654642785742 0,64.89294139288094" fill="none" stroke="black" stroke-width="1" stroke-linecap="butt" stroke-linejoin="miter" stroke-miterlimit="10" transform="matrix(1, 0, 0, 1, 5, 5)"></path><path d="M 0,0 L 8,4 L 0,8 L 2,4 z" fill="black" stroke="none" transform="matrix(-0.9842302631765546, 0.1768920265229894, -0.1768920265229894, -0.9842302631765546, 14.073525343092674, 72.32628022014174)"></path><path d="M 0,0 L 8,4 L 0,8 L 2,4 z" fill="none" stroke="black" stroke-width="1" stroke-linecap="butt" stroke-linejoin="miter" stroke-miterlimit="10" transform="matrix(-0.9842302631765546, 0.1768920265229894, -0.1768920265229894, -0.9842302631765546, 14.073525343092674, 72.32628022014174)"></path><path d="M 8,0 L 6,4 L 8,8 L 0,4 z" fill="black" stroke="none" transform="matrix(-0.9282657418445882, 0.3719176152291208, -0.3719176152291208, -0.9282657418445882, 230.20666602053478, 8.899021774992914)"></path><path d="M 8,0 L 6,4 L 8,8 L 0,4 z" fill="none" stroke="black" stroke-width="1" stroke-linecap="butt" stroke-linejoin="miter" stroke-miterlimit="10" transform="matrix(-0.9282657418445882, 0.3719176152291208, -0.3719176152291208, -0.9282657418445882, 230.20666602053478, 8.899021774992914)"></path><g transform="matrix(1, 0, 0, 1, 84.75586378293158, 30.818636311157235)"><path d="M 5,0 L 47.68269857252669,0 C 49.92127482337272,0 52.68269857252669,2.761423749153968 52.68269857252669,5 L 52.68269857252669,22.192989099870434 C 52.68269857252669,24.43156535071647 49.92127482337272,27.192989099870434 47.68269857252669,27.192989099870434 L 5,27.192989099870434 C 2.761423749153968,27.192989099870434 0,24.43156535071647 0,22.192989099870434 L 0,5 C 0,2.761423749153968 2.761423749153968,0 5,0 z" fill="#ffffff" stroke="none" transform="matrix(1, 0, 0, 1, 0.5, 0.5)"></path><text x="20.579925537109375" y="11.752606201171876" style="font: 14px Poppins" text-anchor="middle" fill="black" stroke="none" transform="matrix(1, 0, 0, 1, 6.261423749153968, 6.261423749153968)">HTTPS</text></g></g><g transform="matrix(1, 0, 0, 1, 458.5563654680796, -132.95882401951715)"><path d="M 22.51641302059545,0 C 25.271097594422997,58.438966971156376 17.317425337184375,114.6403164033158 0,168.61863836084643" fill="none" stroke="black" stroke-width="1" stroke-linecap="butt" stroke-linejoin="miter" stroke-miterlimit="10" transform="matrix(1, 0, 0, 1, 8.056101559336149, 5)"></path><path d="M 0,0 L 8,4 L 0,8 L 2,4 z" fill="black" stroke="none" transform="matrix(-0.3054855180639417, 0.9521967224545593, -0.9521967224545593, -0.3054855180639417, 14.46151535269789, 166.74690829223843)"></path><path d="M 0,0 L 8,4 L 0,8 L 2,4 z" fill="none" stroke="black" stroke-width="1" stroke-linecap="butt" stroke-linejoin="miter" stroke-miterlimit="10" transform="matrix(-0.3054855180639417, 0.9521967224545593, -0.9521967224545593, -0.3054855180639417, 14.46151535269789, 166.74690829223843)"></path><path d="M 8,0 L 6,4 L 8,8 L 0,4 z" fill="black" stroke="none" transform="matrix(0.047085521705070126, 0.9988908617290286, -0.9988908617290286, 0.047085521705070126, 34.59162078770025, 5.311103344044234)"></path><path d="M 8,0 L 6,4 L 8,8 L 0,4 z" fill="none" stroke="black" stroke-width="1" stroke-linecap="butt" stroke-linejoin="miter" stroke-miterlimit="10" transform="matrix(0.047085521705070126, 0.9988908617290286, -0.9988908617290286, 0.047085521705070126, 34.59162078770025, 5.311103344044234)"></path><g transform="matrix(1, 0, 0, 1, 0, 76.88556651059766)"><path d="M 5,0 L 47.68269857252669,0 C 49.92127482337272,0 52.68269857252669,2.761423749153968 52.68269857252669,5 L 52.68269857252669,22.192989099870434 C 52.68269857252669,24.43156535071647 49.92127482337272,27.192989099870434 47.68269857252669,27.192989099870434 L 5,27.192989099870434 C 2.761423749153968,27.192989099870434 0,24.43156535071647 0,22.192989099870434 L 0,5 C 0,2.761423749153968 2.761423749153968,0 5,0 z" fill="#ffffff" stroke="none" transform="matrix(1, 0, 0, 1, 0.5, 0.5)"></path><text x="20.579925537109375" y="11.752606201171876" style="font: 14px Poppins" text-anchor="middle" fill="black" stroke="none" transform="matrix(1, 0, 0, 1, 6.261423749153968, 6.261423749153968)">HTTPS</text></g></g><g transform="matrix(1, 0, 0, 1, 526.4683694665341, 28.26167805076078)"><path d="M 0,27.378174144469952 C 89.3807036758351,10.098791731289396 180.28980788009767,1.335728460473348 272.73184053909836,0" fill="none" stroke="black" stroke-width="1" stroke-linecap="butt" stroke-linejoin="miter" stroke-miterlimit="10" transform="matrix(1, 0, 0, 1, 5, 6.38627770996545)"></path><path d="M 0,0 L 8,4 L 0,8 L 2,4 z" fill="black" stroke="none" transform="matrix(0.9998956243021954, -0.014447854557784955, 0.014447854557784955, 0.9998956243021954, 269.1749363142985, 2.509501976497842)"></path><path d="M 0,0 L 8,4 L 0,8 L 2,4 z" fill="none" stroke="black" stroke-width="1" stroke-linecap="butt" stroke-linejoin="miter" stroke-miterlimit="10" transform="matrix(0.9998956243021954, -0.014447854557784955, 0.014447854557784955, 0.9998956243021954, 269.1749363142985, 2.509501976497842)"></path><path d="M 8,0 L 6,4 L 8,8 L 0,4 z" fill="black" stroke="none" transform="matrix(0.9818210361775018, -0.18980899061776976, 0.18980899061776976, 0.9818210361775018, 4.731674555617672, 29.74226321441651)"></path><path d="M 8,0 L 6,4 L 8,8 L 0,4 z" fill="none" stroke="black" stroke-width="1" stroke-linecap="butt" stroke-linejoin="miter" stroke-miterlimit="10" transform="matrix(0.9818210361775018, -0.18980899061776976, 0.18980899061776976, 0.9818210361775018, 4.731674555617672, 29.74226321441651)"></path><g transform="matrix(1, 0, 0, 1, 75.21973515121981, 0)"><path d="M 5,0 L 123.99637349928449,0 C 126.23494975013053,0 128.9963734992845,2.761423749153968 128.9963734992845,5 L 128.9963734992845,22.192989099870434 C 128.9963734992845,24.43156535071647 126.23494975013053,27.192989099870434 123.99637349928449,27.192989099870434 L 5,27.192989099870434 C 2.761423749153968,27.192989099870434 0,24.43156535071647 0,22.192989099870434 L 0,5 C 0,2.761423749153968 2.761423749153968,0 5,0 z" fill="#ffffff" stroke="none" transform="matrix(1, 0, 0, 1, 0.5, 0.5)"></path><text x="58.73676300048828" y="11.752606201171876" style="font: 14px Poppins" text-anchor="middle" fill="black" stroke="none" transform="matrix(1, 0, 0, 1, 6.261423749153968, 6.261423749153968)">Transfer Request</text></g></g><g transform="matrix(1, 0, 0, 1, 496.6361617901314, 107.78190525991931)"><path d="M 0,0 C 60.214698971020425,46.466249799783895 119.14344921182226,104.30640649420067 174.49962228670563,173.12380702334445" fill="none" stroke="black" stroke-width="1" stroke-linecap="butt" stroke-linejoin="miter" stroke-miterlimit="10" transform="matrix(1, 0, 0, 1, 5, 5)"></path><path d="M 0,0 L 8,4 L 0,8 L 2,4 z" fill="black" stroke="none" transform="matrix(0.6267795891738105, 0.7791966033005466, -0.7791966033005466, 0.6267795891738105, 177.2887821919304, 168.99351753859457)"></path><path d="M 0,0 L 8,4 L 0,8 L 2,4 z" fill="none" stroke="black" stroke-width="1" stroke-linecap="butt" stroke-linejoin="miter" stroke-miterlimit="10" transform="matrix(0.6267795891738105, 0.7791966033005466, -0.7791966033005466, 0.6267795891738105, 177.2887821919304, 168.99351753859457)"></path><path d="M 8,0 L 6,4 L 8,8 L 0,4 z" fill="black" stroke="none" transform="matrix(0.7916874361847187, 0.6109263485783429, -0.6109263485783429, 0.7916874361847187, 7.839549112405731, 2.1387134295502968)"></path><path d="M 8,0 L 6,4 L 8,8 L 0,4 z" fill="none" stroke="black" stroke-width="1" stroke-linecap="butt" stroke-linejoin="miter" stroke-miterlimit="10" transform="matrix(0.7916874361847187, 0.6109263485783429, -0.6109263485783429, 0.7916874361847187, 7.839549112405731, 2.1387134295502968)"></path><g transform="matrix(1, 0, 0, 1, 46.62950269607055, 69.08372743822704)"><path d="M 5,0 L 88.88451131666731,0 C 91.12308756751335,0 93.88451131666731,2.761423749153968 93.88451131666731,5 L 93.88451131666731,22.192989099870434 C 93.88451131666731,24.43156535071647 91.12308756751335,27.192989099870434 88.88451131666731,27.192989099870434 L 5,27.192989099870434 C 2.761423749153968,27.192989099870434 0,24.43156535071647 0,22.192989099870434 L 0,5 C 0,2.761423749153968 2.761423749153968,0 5,0 z" fill="#ffffff" stroke="none" transform="matrix(1, 0, 0, 1, 0.5, 0.5)"></path><text x="41.18083190917969" y="11.752606201171876" style="font: 14px Poppins" text-anchor="middle" fill="black" stroke="none" transform="matrix(1, 0, 0, 1, 6.261423749153975, 6.261423749153968)">SQL Queries</text></g></g><g transform="matrix(1, 0, 0, 1, 734.7384431306459, 64.26178253174055)"><path d="M 149.12428046433172,0 C 106.25024781767854,81.25353044625967 56.19835530216744,153.41991237765922 0,216.81434869260266" fill="none" stroke="black" stroke-width="1" stroke-linecap="butt" stroke-linejoin="miter" stroke-miterlimit="10" transform="matrix(1, 0, 0, 1, 5, 5)"></path><path d="M 0,0 L 8,4 L 0,8 L 2,4 z" fill="black" stroke="none" transform="matrix(-0.663359287145482, 0.7483010464765086, -0.7483010464765086, -0.663359287145482, 13.631758126642634, 218.1072269461343)"></path><path d="M 0,0 L 8,4 L 0,8 L 2,4 z" fill="none" stroke="black" stroke-width="1" stroke-linecap="butt" stroke-linejoin="miter" stroke-miterlimit="10" transform="matrix(-0.663359287145482, 0.7483010464765086, -0.7483010464765086, -0.663359287145482, 13.631758126642634, 218.1072269461343)"></path><path d="M 8,0 L 6,4 L 8,8 L 0,4 z" fill="black" stroke="none" transform="matrix(-0.46667539824497856, 0.8844286702006503, -0.8844286702006503, -0.46667539824497856, 157.42865744601184, 7.308915928080238)"></path><path d="M 8,0 L 6,4 L 8,8 L 0,4 z" fill="none" stroke="black" stroke-width="1" stroke-linecap="butt" stroke-linejoin="miter" stroke-miterlimit="10" transform="matrix(-0.46667539824497856, 0.8844286702006503, -0.8844286702006503, -0.46667539824497856, 157.42865744601184, 7.308915928080238)"></path><g transform="matrix(1, 0, 0, 1, 17.761586136056323, 106.00784009560968)"><path d="M 5,0 L 127.5943501838548,0 C 129.83292643470082,0 132.5943501838548,2.761423749153968 132.5943501838548,5 L 132.5943501838548,22.192989099870434 C 132.5943501838548,24.43156535071647 129.83292643470082,27.192989099870434 127.5943501838548,27.192989099870434 L 5,27.192989099870434 C 2.761423749153968,27.192989099870434 0,24.43156535071647 0,22.192989099870434 L 0,5 C 0,2.761423749153968 2.761423749153968,0 5,0 z" fill="#ffffff" stroke="none" transform="matrix(1, 0, 0, 1, 0.5, 0.5)"></path><text x="60.53575134277344" y="11.752606201171876" style="font: 14px Poppins" text-anchor="middle" fill="black" stroke="none" transform="matrix(1, 0, 0, 1, 6.261423749153954, 6.261423749153968)">Update Accounts</text></g></g><g transform="matrix(1, 0, 0, 1, 816.465086128954, -321.16547932065333)"><rect x="0" y="0" width="131.32717895507812" height="20.14728240966797" fill="#ffffff" stroke="none" transform="matrix(1, 0, 0, 1, 0, 0)"></rect><text x="65.66358947753906" y="15.110461807250978" style="font: 18px Poppins" text-anchor="middle" fill="#d2001a" stroke="none" transform="matrix(1, 0, 0, 1, 0, 0)">Public Network</text><g transform="matrix(1, 0, 0, 1, 2.97552490234375, 20.14728240966797)"><path d="M 0,0 L 124.37612915039062,0 L 124.37612915039062,78.90884094238282 L 0,78.90884094238282 z" stroke-dasharray="5,5" stroke-dashoffset="0" fill="none" stroke="#d2001a" stroke-width="1" stroke-linecap="butt" stroke-linejoin="miter" stroke-miterlimit="10" transform="matrix(1, 0, 0, 1, 0.5, 0.5)"></path></g></g><g transform="matrix(1, 0, 0, 1, 834.9406110312977, -285.51819691098535)"><g transform="matrix(1, 0, 0, 1, 0, 0)"><g transform="matrix(1, 0, 0, 1, 0, 0)" filter="url(#SHADOW1197)"><filter id="SHADOW1197" x="-100%" y="-100%" width="300%" height="300%"><feGaussianBlur in="SourceAlpha" result="blur" stdDeviation="25"></feGaussianBlur><feFlood in="blur" result="flood" flood-color="#00000033"></feFlood><feComposite in="flood" in2="blur" operator="in" result="comp"></feComposite><feOffset in="comp" result="offsetBlur" dx="0" dy="0"></feOffset><feMerge><feMergeNode in="offsetBlur"></feMergeNode><feMergeNode in="SourceGraphic"></feMergeNode></feMerge></filter><path d="M 0,0 L 93.37612915039062,0 L 93.37612915039062,47.90884094238281 L 0,47.90884094238281 z" fill="#f0c674" stroke="none" transform="matrix(1, 0, 0, 1, 0.5, 0.5)"></path><path d="M 0,0 L 93.37612915039062,0 L 93.37612915039062,47.90884094238281 L 0,47.90884094238281 z" fill="none" stroke="black" stroke-width="1" stroke-linecap="butt" stroke-linejoin="miter" stroke-miterlimit="10" transform="matrix(1, 0, 0, 1, 0.5, 0.5)"></path></g><g transform="matrix(1, 0, 0, 1, 5.5, 5.5)"><text x="31.688064575195312" y="13.43163070678711" style="font: 16px Poppins" text-anchor="middle" fill="black" stroke="none" transform="matrix(1, 0, 0, 1, 10, 10)">Browser</text></g></g></g><g transform="matrix(1, 0, 0, 1, 349.2843782627711, -218.0372403007404)"><rect x="0" y="0" width="79.25352478027344" height="20.14728240966797" fill="#ffffff" stroke="none" transform="matrix(1, 0, 0, 1, 98.93487040442741, 0)"></rect><text x="39.62676239013672" y="15.110461807250978" style="font: 18px Poppins" text-anchor="middle" fill="#d2001a" stroke="none" transform="matrix(1, 0, 0, 1, 98.93487040442741, 0)">DMZ VPC</text><g transform="matrix(1, 0, 0, 1, 0, 20.14728240966797)"><path d="M 0,0 L 276.12326558912827,0 L 276.12326558912827,84.43168844069075 L 0,84.43168844069075 z" stroke-dasharray="5,5" stroke-dashoffset="0" fill="none" stroke="#d2001a" stroke-width="1" stroke-linecap="butt" stroke-linejoin="miter" stroke-miterlimit="10" transform="matrix(1, 0, 0, 1, 0.5, 0.5)"></path></g></g><g transform="matrix(1, 0, 0, 1, 364.7843782627711, -182.3899578910724)"><g transform="matrix(1, 0, 0, 1, 0, 0)"><g transform="matrix(1, 0, 0, 1, 0, 0)" filter="url(#SHADOW1198)"><filter id="SHADOW1198" x="-100%" y="-100%" width="300%" height="300%"><feGaussianBlur in="SourceAlpha" result="blur" stdDeviation="25"></feGaussianBlur><feFlood in="blur" result="flood" flood-color="#00000033"></feFlood><feComposite in="flood" in2="blur" operator="in" result="comp"></feComposite><feOffset in="comp" result="offsetBlur" dx="0" dy="0"></feOffset><feMerge><feMergeNode in="offsetBlur"></feMergeNode><feMergeNode in="SourceGraphic"></feMergeNode></feMerge></filter><path d="M 5,0 L 240.12326558912824,0 C 242.36184183997426,0 245.12326558912824,2.761423749153968 245.12326558912824,5 L 245.12326558912824,48.43168844069075 C 245.12326558912824,50.67026469153678 242.36184183997426,53.43168844069075 240.12326558912824,53.43168844069075 L 5,53.43168844069075 C 2.761423749153968,53.43168844069075 0,50.67026469153678 0,48.43168844069075 L 0,5 C 0,2.761423749153968 2.761423749153968,0 5,0 z" fill="#c5c8c6" stroke="none" transform="matrix(1, 0, 0, 1, 0.5, 0.5)"></path><path d="M 5,0 L 240.12326558912824,0 C 242.36184183997426,0 245.12326558912824,2.761423749153968 245.12326558912824,5 L 245.12326558912824,48.43168844069075 C 245.12326558912824,50.67026469153678 242.36184183997426,53.43168844069075 240.12326558912824,53.43168844069075 L 5,53.43168844069075 C 2.761423749153968,53.43168844069075 0,50.67026469153678 0,48.43168844069075 L 0,5 C 0,2.761423749153968 2.761423749153968,0 5,0 z" fill="none" stroke="black" stroke-width="1" stroke-linecap="butt" stroke-linejoin="miter" stroke-miterlimit="10" transform="matrix(1, 0, 0, 1, 0.5, 0.5)"></path></g><g transform="matrix(1, 0, 0, 1, 8.261423749153954, 8.261423749153968)"><text x="104.80020904541016" y="13.43163070678711" style="font: 16px Poppins" text-anchor="middle" fill="black" stroke="none" transform="matrix(1, 0, 0, 1, 10, 10)">Application Load Balancer</text></g></g></g><g transform="matrix(1, 0, 0, 1, 363.0543886718171, -38.66824359610131)"><rect x="0" y="0" width="102.83335876464844" height="20.14728240966797" fill="#ffffff" stroke="none" transform="matrix(1, 0, 0, 1, 280.6237904388364, 0)"></rect><text x="51.41667938232422" y="15.110461807250978" style="font: 18px Poppins" text-anchor="middle" fill="#d2001a" stroke="none" transform="matrix(1, 0, 0, 1, 280.6237904388364, 0)">Private VPC</text><g transform="matrix(1, 0, 0, 1, 0, 20.14728240966797)"><path d="M 0,0 L 663.0809396423213,0 L 663.0809396423213,145.99740327206348 L 0,145.99740327206348 z" stroke-dasharray="5,5" stroke-dashoffset="0" fill="none" stroke="#d2001a" stroke-width="1" stroke-linecap="butt" stroke-linejoin="miter" stroke-miterlimit="10" transform="matrix(1, 0, 0, 1, 0.5, 0.5)"></path></g></g><g transform="matrix(1, 0, 0, 1, 378.5543886718171, 40.635912702556574)"><g transform="matrix(1, 0, 0, 1, 0, 0)"><g transform="matrix(1, 0, 0, 1, 0, 0)" filter="url(#SHADOW1199)"><filter id="SHADOW1199" x="-100%" y="-100%" width="300%" height="300%"><feGaussianBlur in="SourceAlpha" result="blur" stdDeviation="25"></feGaussianBlur><feFlood in="blur" result="flood" flood-color="#00000033"></feFlood><feComposite in="flood" in2="blur" operator="in" result="comp"></feComposite><feOffset in="comp" result="offsetBlur" dx="0" dy="0"></feOffset><feMerge><feMergeNode in="offsetBlur"></feMergeNode><feMergeNode in="SourceGraphic"></feMergeNode></feMerge></filter><path d="M 5,0 L 146.92307027662824,0 C 149.16164652747426,0 151.92307027662824,2.761423749153968 151.92307027662824,5 L 151.92307027662824,66.34052938307356 C 151.92307027662824,68.5791056339196 149.16164652747426,71.34052938307356 146.92307027662824,71.34052938307356 L 5,71.34052938307356 C 2.761423749153968,71.34052938307356 0,68.5791056339196 0,66.34052938307356 L 0,5 C 0,2.761423749153968 2.761423749153968,0 5,0 z" fill="#c5c8c6" stroke="none" transform="matrix(1, 0, 0, 1, 0.5, 0.5)"></path><path d="M 5,0 L 146.92307027662824,0 C 149.16164652747426,0 151.92307027662824,2.761423749153968 151.92307027662824,5 L 151.92307027662824,66.34052938307356 C 151.92307027662824,68.5791056339196 149.16164652747426,71.34052938307356 146.92307027662824,71.34052938307356 L 5,71.34052938307356 C 2.761423749153968,71.34052938307356 0,68.5791056339196 0,66.34052938307356 L 0,5 C 0,2.761423749153968 2.761423749153968,0 5,0 z" fill="none" stroke="black" stroke-width="1" stroke-linecap="butt" stroke-linejoin="miter" stroke-miterlimit="10" transform="matrix(1, 0, 0, 1, 0.5, 0.5)"></path></g><g transform="matrix(1, 0, 0, 1, 8.261423749153954, 8.261423749153975)"><g transform="matrix(1, 0, 0, 1, 0, 0)"><text x="58.200111389160156" y="13.43163070678711" style="font: 16px Poppins" text-anchor="middle" fill="black" stroke="none" transform="matrix(1, 0, 0, 1, 10, 10)">Java Web App</text><text x="58.200111389160156" y="31.340471649169924" style="font: 16px Poppins" text-anchor="middle" fill="black" stroke="none" transform="matrix(1, 0, 0, 1, 10, 10)">(AWS EC2)</text></g></g></g></g><g transform="matrix(1, 0, 0, 1, 804.2001578177835, -3.0209611864333468)"><g transform="matrix(1, 0, 0, 1, 0, 0)"><g transform="matrix(1, 0, 0, 1, 0, 0)" filter="url(#SHADOW1200)"><filter id="SHADOW1200" x="-100%" y="-100%" width="300%" height="300%"><feGaussianBlur in="SourceAlpha" result="blur" stdDeviation="25"></feGaussianBlur><feFlood in="blur" result="flood" flood-color="#00000033"></feFlood><feComposite in="flood" in2="blur" operator="in" result="comp"></feComposite><feOffset in="comp" result="offsetBlur" dx="0" dy="0"></feOffset><feMerge><feMergeNode in="offsetBlur"></feMergeNode><feMergeNode in="SourceGraphic"></feMergeNode></feMerge></filter><path d="M 5,0 L 201.4351704963548,0 C 203.67374674720082,0 206.4351704963548,2.761423749153968 206.4351704963548,5 L 206.4351704963548,66.34052938307356 C 206.4351704963548,68.5791056339196 203.67374674720082,71.34052938307356 201.4351704963548,71.34052938307356 L 5,71.34052938307356 C 2.761423749153968,71.34052938307356 0,68.5791056339196 0,66.34052938307356 L 0,5 C 0,2.761423749153968 2.761423749153968,0 5,0 z" fill="#c5c8c6" stroke="none" transform="matrix(1, 0, 0, 1, 0.5, 0.5)"></path><path d="M 5,0 L 201.4351704963548,0 C 203.67374674720082,0 206.4351704963548,2.761423749153968 206.4351704963548,5 L 206.4351704963548,66.34052938307356 C 206.4351704963548,68.5791056339196 203.67374674720082,71.34052938307356 201.4351704963548,71.34052938307356 L 5,71.34052938307356 C 2.761423749153968,71.34052938307356 0,68.5791056339196 0,66.34052938307356 L 0,5 C 0,2.761423749153968 2.761423749153968,0 5,0 z" fill="none" stroke="black" stroke-width="1" stroke-linecap="butt" stroke-linejoin="miter" stroke-miterlimit="10" transform="matrix(1, 0, 0, 1, 0.5, 0.5)"></path></g><g transform="matrix(1, 0, 0, 1, 8.261423749153954, 8.261423749153975)"><g transform="matrix(1, 0, 0, 1, 0, 0)"><text x="85.45616149902344" y="13.43163070678711" style="font: 16px Poppins" text-anchor="middle" fill="black" stroke="none" transform="matrix(1, 0, 0, 1, 10, 10)">Fund Transfer Service</text><text x="85.45616149902344" y="31.340471649169924" style="font: 16px Poppins" text-anchor="middle" fill="black" stroke="none" transform="matrix(1, 0, 0, 1, 10, 10)">(AWS Lambda)</text></g></g></g></g><g transform="matrix(1, 0, 0, 1, 619.536858350051, 249.5540744137523)"><rect x="0" y="0" width="129.79718017578125" height="20.14728240966797" fill="#ffffff" stroke="none" transform="matrix(1, 0, 0, 1, 22.029525756835938, 0)"></rect><text x="64.89859008789062" y="15.110461807250978" style="font: 18px Poppins" text-anchor="middle" fill="#d2001a" stroke="none" transform="matrix(1, 0, 0, 1, 22.029525756835938, 0)">Database VPC</text><g transform="matrix(1, 0, 0, 1, 0, 20.14728240966797)"><path d="M 0,0 L 172.85623168945312,0 L 172.85623168945312,106.81768188476565 L 0,106.81768188476565 z" stroke-dasharray="5,5" stroke-dashoffset="0" fill="none" stroke="#d2001a" stroke-width="1" stroke-linecap="butt" stroke-linejoin="miter" stroke-miterlimit="10" transform="matrix(1, 0, 0, 1, 0.5, 0.5)"></path></g></g><g transform="matrix(1, 0, 0, 1, 635.036858350051, 285.20135682342027)"><g transform="matrix(1, 0, 0, 1, 0, 0)"><g transform="matrix(1, 0, 0, 1, 0, 0)"><g transform="matrix(1, 0, 0, 1, 0, 0)" filter="url(#SHADOW1201)"><filter id="SHADOW1201" x="-100%" y="-100%" width="300%" height="300%"><feGaussianBlur in="SourceAlpha" result="blur" stdDeviation="25"></feGaussianBlur><feFlood in="blur" result="flood" flood-color="#00000033"></feFlood><feComposite in="flood" in2="blur" operator="in" result="comp"></feComposite><feOffset in="comp" result="offsetBlur" dx="0" dy="0"></feOffset><feMerge><feMergeNode in="offsetBlur"></feMergeNode><feMergeNode in="SourceGraphic"></feMergeNode></feMerge></filter><path d="M 0,5 C 0,2.761423749153968 31.755599129452207,0 70.92811584472656,0 C 110.10063256000093,0 141.85623168945312,2.761423749153968 141.85623168945312,5 L 141.85623168945312,70.81768188476562 C 141.85623168945312,73.05625813561166 110.10063256000093,75.81768188476562 70.92811584472656,75.81768188476562 C 31.755599129452207,75.81768188476562 0,73.05625813561166 0,70.81768188476562 L 0,5" fill="#8abeb7" stroke="none" transform="matrix(1, 0, 0, 1, 0.5, 0.5)"></path><path d="M 0,5 C 0,2.761423749153968 31.755599129452207,0 70.92811584472656,0 C 110.10063256000093,0 141.85623168945312,2.761423749153968 141.85623168945312,5 L 141.85623168945312,70.81768188476562 C 141.85623168945312,73.05625813561166 110.10063256000093,75.81768188476562 70.92811584472656,75.81768188476562 C 31.755599129452207,75.81768188476562 0,73.05625813561166 0,70.81768188476562 L 0,5" fill="none" stroke="black" stroke-width="1" stroke-linecap="butt" stroke-linejoin="miter" stroke-miterlimit="10" transform="matrix(1, 0, 0, 1, 0.5, 0.5)"></path><path d="M 141.85623168945312,5 C 141.85623168945312,7.238576250846032 110.10063256000093,10 70.92811584472656,10 C 31.755599129452207,10 0,7.238576250846032 0,5" fill="none" stroke="black" stroke-width="1" stroke-linecap="butt" stroke-linejoin="miter" stroke-miterlimit="10" transform="matrix(1, 0, 0, 1, 0.5, 0.5)"></path></g></g><g transform="matrix(1, 0, 0, 1, 5.5, 15.5)"><g transform="matrix(1, 0, 0, 1, 0, 0)"><text x="55.92811584472656" y="13.43163070678711" style="font: 16px Poppins" text-anchor="middle" fill="black" stroke="none" transform="matrix(1, 0, 0, 1, 10, 10)">SQL Database</text><text x="55.92811584472656" y="31.340471649169924" style="font: 16px Poppins" text-anchor="middle" fill="black" stroke="none" transform="matrix(1, 0, 0, 1, 10, 10)">(RDS MySQL)</text></g></g></g></g></g></g><clipPath id="mainClip1196"><rect x="0" y="0" width="728px" height="749px"></rect></clipPath></svg>
